<svg width="640" height="640" viewBox="0 0 640 640" xmlns="http://www.w3.org/2000/svg" role="img" aria-labelledby="title desc">
  <title id="title">Growth chart illustration</title>
  <desc id="desc">Upward trending bar chart with target icon to represent marketing performance growth.</desc>
  <defs>
    <linearGradient id="bg" x1="0%" y1="0%" x2="100%" y2="100%">
      <stop offset="0%" stop-color="#0F1115" />
      <stop offset="100%" stop-color="#0EA5A4" />
    </linearGradient>
  </defs>
  <rect x="0" y="0" width="640" height="640" rx="32" fill="url(#bg)" />
  <g transform="translate(72 120)" fill="none" stroke="#F6F7F9" stroke-width="6" stroke-linecap="round">
    <path d="M0 370h480" opacity="0.4" />
    <path d="M0 290h480" opacity="0.3" />
    <path d="M0 210h480" opacity="0.2" />
    <path d="M0 130h480" opacity="0.15" />
  </g>
  <g transform="translate(120 180)">
    <rect x="0" y="200" width="90" height="170" rx="14" fill="#0EA5A4" opacity="0.8" />
    <rect x="120" y="130" width="90" height="240" rx="14" fill="#0EA5A4" opacity="0.85" />
    <rect x="240" y="70" width="90" height="300" rx="14" fill="#0EA5A4" />
    <rect x="360" y="10" width="90" height="360" rx="14" fill="#F59E0B" />
  </g>
  <g transform="translate(280 60)" fill="#F6F7F9">
    <circle cx="120" cy="120" r="72" fill-opacity="0.16" />
    <circle cx="120" cy="120" r="48" fill-opacity="0.25" />
    <circle cx="120" cy="120" r="24" />
  </g>
  <path d="M130 390c70-54 140-94 240-70 60 15 90-30 110-72" stroke="#F6F7F9" stroke-width="10" stroke-linecap="round" fill="none" />
</svg>
